<?xml version="1.0" encoding="UTF-8"?><svg xmlns="http://www.w3.org/2000/svg" xmlns:xlink="http://www.w3.org/1999/xlink" contentScriptType="text/ecmascript" width="375" zoomAndPan="magnify" contentStyleType="text/css" viewBox="0 0 375 374.999991" height="374.999991" preserveAspectRatio="xMidYMid meet" version="1.0"><defs><clipPath id="clip-0"><path d="M 125 0 L 331.246094 0 L 331.246094 238 L 125 238 Z M 125 0 " clip-rule="nonzero"/></clipPath></defs><path fill="rgb(0%, 0%, 0%)" d="M 102.996094 286.28125 L 97.621094 286.28125 C 68.074219 286.28125 44.035156 310.300781 44.035156 339.824219 L 44.035156 369.71875 C 44.035156 370.066406 44.070312 370.410156 44.136719 370.75 C 44.203125 371.089844 44.304688 371.421875 44.4375 371.742188 C 44.570312 372.0625 44.734375 372.367188 44.925781 372.65625 C 45.121094 372.945312 45.339844 373.210938 45.585938 373.457031 C 45.828125 373.703125 46.097656 373.921875 46.386719 374.113281 C 46.675781 374.308594 46.980469 374.472656 47.300781 374.605469 C 47.621094 374.738281 47.953125 374.835938 48.292969 374.90625 C 48.632812 374.972656 48.976562 375.007812 49.324219 375.007812 L 151.292969 375.007812 C 151.640625 375.007812 151.984375 374.972656 152.324219 374.90625 C 152.667969 374.835938 152.996094 374.738281 153.316406 374.605469 C 153.640625 374.472656 153.945312 374.308594 154.234375 374.113281 C 154.523438 373.921875 154.789062 373.703125 155.035156 373.457031 C 155.28125 373.210938 155.5 372.945312 155.691406 372.65625 C 155.886719 372.367188 156.046875 372.0625 156.183594 371.742188 C 156.316406 371.421875 156.414062 371.089844 156.484375 370.75 C 156.550781 370.410156 156.585938 370.066406 156.585938 369.71875 L 156.585938 339.824219 C 156.585938 310.300781 132.546875 286.28125 102.996094 286.28125 Z M 102.996094 286.28125 " fill-opacity="1" fill-rule="nonzero"/><path fill="rgb(0%, 0%, 0%)" d="M 100.347656 280.085938 C 101.40625 280.085938 102.460938 280.035156 103.515625 279.929688 C 104.570312 279.824219 105.617188 279.671875 106.65625 279.464844 C 107.695312 279.257812 108.71875 279 109.734375 278.695312 C 110.746094 278.386719 111.742188 278.03125 112.722656 277.625 C 113.699219 277.222656 114.65625 276.769531 115.589844 276.269531 C 116.523438 275.773438 117.429688 275.226562 118.3125 274.640625 C 119.191406 274.054688 120.039062 273.421875 120.859375 272.753906 C 121.679688 272.082031 122.460938 271.371094 123.210938 270.621094 C 123.960938 269.875 124.667969 269.089844 125.339844 268.273438 C 126.011719 267.457031 126.644531 266.605469 127.230469 265.726562 C 127.820312 264.847656 128.363281 263.941406 128.863281 263.007812 C 129.363281 262.074219 129.8125 261.121094 130.21875 260.140625 C 130.625 259.164062 130.980469 258.167969 131.289062 257.15625 C 131.597656 256.144531 131.851562 255.121094 132.058594 254.082031 C 132.265625 253.042969 132.421875 252 132.523438 250.945312 C 132.628906 249.894531 132.679688 248.835938 132.679688 247.777344 C 132.679688 246.722656 132.628906 245.664062 132.523438 244.613281 C 132.421875 243.558594 132.265625 242.515625 132.058594 241.476562 C 131.851562 240.4375 131.597656 239.414062 131.289062 238.402344 C 130.980469 237.386719 130.625 236.394531 130.21875 235.417969 C 129.8125 234.4375 129.363281 233.484375 128.863281 232.550781 C 128.363281 231.617188 127.820312 230.710938 127.230469 229.832031 C 126.644531 228.949219 126.011719 228.101562 125.339844 227.285156 C 124.667969 226.464844 123.960938 225.683594 123.210938 224.933594 C 122.460938 224.1875 121.679688 223.476562 120.859375 222.804688 C 120.039062 222.136719 119.191406 221.503906 118.3125 220.917969 C 117.429688 220.328125 116.523438 219.785156 115.589844 219.289062 C 114.65625 218.789062 113.699219 218.335938 112.722656 217.933594 C 111.742188 217.527344 110.746094 217.171875 109.734375 216.863281 C 108.71875 216.558594 107.695312 216.300781 106.65625 216.09375 C 105.617188 215.886719 104.570312 215.730469 103.515625 215.628906 C 102.460938 215.523438 101.40625 215.472656 100.347656 215.472656 C 99.289062 215.472656 98.230469 215.523438 97.179688 215.628906 C 96.125 215.730469 95.078125 215.886719 94.039062 216.09375 C 93 216.300781 91.972656 216.558594 90.960938 216.863281 C 89.949219 217.171875 88.953125 217.527344 87.972656 217.933594 C 86.996094 218.335938 86.039062 218.789062 85.105469 219.289062 C 84.171875 219.785156 83.265625 220.328125 82.382812 220.917969 C 81.503906 221.503906 80.652344 222.136719 79.835938 222.804688 C 79.015625 223.476562 78.234375 224.1875 77.484375 224.933594 C 76.734375 225.683594 76.023438 226.464844 75.351562 227.285156 C 74.679688 228.101562 74.050781 228.949219 73.460938 229.832031 C 72.875 230.710938 72.332031 231.617188 71.832031 232.550781 C 71.332031 233.484375 70.878906 234.4375 70.476562 235.417969 C 70.070312 236.394531 69.714844 237.386719 69.40625 238.402344 C 69.097656 239.414062 68.839844 240.4375 68.632812 241.476562 C 68.429688 242.515625 68.273438 243.558594 68.167969 244.613281 C 68.066406 245.664062 68.011719 246.722656 68.011719 247.777344 C 68.015625 248.835938 68.066406 249.890625 68.171875 250.945312 C 68.277344 251.996094 68.433594 253.042969 68.640625 254.078125 C 68.847656 255.117188 69.105469 256.140625 69.414062 257.152344 C 69.722656 258.164062 70.078125 259.160156 70.484375 260.136719 C 70.890625 261.113281 71.34375 262.066406 71.84375 263 C 72.339844 263.933594 72.886719 264.839844 73.472656 265.71875 C 74.0625 266.597656 74.691406 267.445312 75.363281 268.265625 C 76.035156 269.082031 76.746094 269.863281 77.496094 270.613281 C 78.242188 271.359375 79.027344 272.070312 79.84375 272.742188 C 80.664062 273.410156 81.511719 274.042969 82.390625 274.628906 C 83.273438 275.21875 84.179688 275.761719 85.113281 276.257812 C 86.046875 276.757812 87 277.210938 87.980469 277.617188 C 88.957031 278.019531 89.953125 278.378906 90.964844 278.6875 C 91.976562 278.992188 93.003906 279.25 94.042969 279.457031 C 95.078125 279.664062 96.125 279.820312 97.179688 279.925781 C 98.234375 280.03125 99.289062 280.082031 100.347656 280.085938 Z M 100.347656 280.085938 " fill-opacity="1" fill-rule="nonzero"/><g clip-path="url(#clip-0)"><path fill="rgb(0%, 0%, 0%)" d="M 291.3125 0 L 165.125 0 C 163.820312 0.00390625 162.515625 0.0703125 161.214844 0.199219 C 159.914062 0.328125 158.625 0.519531 157.34375 0.777344 C 156.0625 1.03125 154.796875 1.347656 153.546875 1.730469 C 152.296875 2.109375 151.066406 2.550781 149.859375 3.050781 C 148.652344 3.550781 147.472656 4.109375 146.320312 4.722656 C 145.167969 5.339844 144.050781 6.011719 142.964844 6.734375 C 141.878906 7.460938 140.828125 8.238281 139.820312 9.066406 C 138.808594 9.894531 137.84375 10.769531 136.917969 11.695312 C 135.996094 12.617188 135.117188 13.582031 134.289062 14.59375 C 133.460938 15.601562 132.683594 16.648438 131.957031 17.734375 C 131.230469 18.820312 130.558594 19.9375 129.941406 21.089844 C 129.324219 22.242188 128.765625 23.417969 128.265625 24.625 C 127.765625 25.832031 127.324219 27.058594 126.945312 28.308594 C 126.566406 29.554688 126.246094 30.820312 125.992188 32.101562 C 125.734375 33.382812 125.542969 34.671875 125.414062 35.96875 C 125.28125 37.269531 125.21875 38.570312 125.214844 39.878906 L 125.214844 158.757812 C 125.21875 160.0625 125.28125 161.367188 125.414062 162.664062 C 125.542969 163.964844 125.734375 165.253906 125.992188 166.535156 C 126.246094 167.8125 126.566406 169.078125 126.945312 170.328125 C 127.324219 171.578125 127.765625 172.804688 128.265625 174.011719 C 128.765625 175.214844 129.324219 176.394531 129.941406 177.546875 C 130.558594 178.695312 131.230469 179.816406 131.957031 180.898438 C 132.683594 181.984375 133.460938 183.03125 134.289062 184.042969 C 135.117188 185.050781 135.996094 186.015625 136.917969 186.941406 C 137.84375 187.863281 138.808594 188.738281 139.820312 189.566406 C 140.828125 190.394531 141.878906 191.171875 142.964844 191.898438 C 144.050781 192.625 145.167969 193.292969 146.320312 193.910156 C 147.472656 194.527344 148.652344 195.085938 149.859375 195.585938 C 151.066406 196.085938 152.296875 196.527344 153.546875 196.90625 C 154.796875 197.285156 156.0625 197.601562 157.34375 197.859375 C 158.625 198.113281 159.914062 198.308594 161.214844 198.4375 C 162.515625 198.566406 163.820312 198.632812 165.125 198.632812 L 192.664062 198.632812 L 180.082031 229.78125 C 179.871094 230.308594 179.746094 230.851562 179.710938 231.417969 C 179.671875 231.984375 179.726562 232.542969 179.867188 233.09375 C 180.011719 233.640625 180.238281 234.152344 180.546875 234.628906 C 180.855469 235.105469 181.230469 235.523438 181.671875 235.878906 C 182.113281 236.234375 182.601562 236.511719 183.132812 236.710938 C 183.664062 236.910156 184.214844 237.019531 184.78125 237.042969 C 185.351562 237.0625 185.90625 236.996094 186.453125 236.839844 C 187 236.683594 187.503906 236.445312 187.972656 236.125 L 242.894531 198.632812 L 291.3125 198.632812 C 292.617188 198.632812 293.921875 198.566406 295.222656 198.4375 C 296.519531 198.308594 297.8125 198.117188 299.09375 197.859375 C 300.375 197.605469 301.640625 197.285156 302.890625 196.90625 C 304.140625 196.527344 305.371094 196.085938 306.574219 195.585938 C 307.78125 195.085938 308.960938 194.527344 310.113281 193.910156 C 311.265625 193.296875 312.386719 192.625 313.472656 191.898438 C 314.558594 191.171875 315.605469 190.394531 316.617188 189.566406 C 317.625 188.738281 318.59375 187.863281 319.515625 186.941406 C 320.441406 186.019531 321.316406 185.050781 322.148438 184.042969 C 322.976562 183.035156 323.753906 181.984375 324.480469 180.902344 C 325.207031 179.816406 325.878906 178.699219 326.492188 177.546875 C 327.109375 176.394531 327.667969 175.214844 328.167969 174.011719 C 328.671875 172.804688 329.109375 171.578125 329.492188 170.328125 C 329.871094 169.078125 330.191406 167.816406 330.445312 166.535156 C 330.703125 165.253906 330.894531 163.964844 331.023438 162.664062 C 331.152344 161.367188 331.21875 160.0625 331.21875 158.757812 L 331.21875 39.878906 C 331.21875 38.574219 331.152344 37.269531 331.023438 35.972656 C 330.894531 34.671875 330.703125 33.382812 330.445312 32.101562 C 330.191406 30.820312 329.871094 29.558594 329.492188 28.308594 C 329.109375 27.058594 328.671875 25.832031 328.171875 24.625 C 327.667969 23.417969 327.109375 22.242188 326.496094 21.089844 C 325.878906 19.9375 325.207031 18.820312 324.480469 17.734375 C 323.753906 16.648438 322.976562 15.601562 322.148438 14.59375 C 321.316406 13.585938 320.441406 12.617188 319.519531 11.695312 C 318.59375 10.773438 317.625 9.894531 316.617188 9.066406 C 315.605469 8.238281 314.558594 7.460938 313.472656 6.738281 C 312.386719 6.011719 311.265625 5.339844 310.113281 4.722656 C 308.964844 4.109375 307.785156 3.550781 306.578125 3.050781 C 305.371094 2.550781 304.140625 2.109375 302.890625 1.730469 C 301.640625 1.347656 300.375 1.03125 299.09375 0.777344 C 297.8125 0.519531 296.519531 0.328125 295.222656 0.199219 C 293.921875 0.0703125 292.617188 0.00390625 291.3125 0 Z M 226.167969 174.945312 C 224.769531 174.960938 223.386719 174.832031 222.015625 174.558594 C 220.644531 174.285156 219.316406 173.875 218.03125 173.328125 C 216.746094 172.777344 215.527344 172.101562 214.382812 171.300781 C 213.238281 170.5 212.1875 169.589844 211.234375 168.570312 C 209.402344 166.570312 208 164.304688 207.03125 161.773438 C 206.0625 159.242188 205.59375 156.625 205.625 153.914062 C 205.625 141.828125 214.53125 132.710938 226.335938 132.710938 C 238.050781 132.710938 246.882812 141.828125 246.882812 153.914062 C 246.882812 165.90625 237.976562 174.949219 226.167969 174.949219 Z M 250.640625 92.320312 L 250.625 92.339844 C 244.292969 99.816406 243.191406 104.679688 243.484375 109.6875 C 243.488281 109.757812 243.492188 109.828125 243.496094 109.902344 C 243.515625 110.398438 243.507812 110.894531 243.476562 111.390625 C 243.449219 111.882812 243.390625 112.378906 243.3125 112.867188 C 243.230469 113.355469 243.125 113.839844 242.996094 114.320312 C 242.867188 114.800781 242.714844 115.273438 242.539062 115.734375 C 242.359375 116.199219 242.160156 116.652344 241.9375 117.097656 C 241.714844 117.542969 241.472656 117.972656 241.207031 118.394531 C 240.9375 118.8125 240.652344 119.21875 240.347656 119.609375 C 240.039062 120 239.714844 120.371094 239.367188 120.730469 C 239.023438 121.089844 238.664062 121.425781 238.285156 121.75 C 237.90625 122.070312 237.511719 122.371094 237.101562 122.652344 C 236.691406 122.933594 236.269531 123.195312 235.835938 123.433594 C 235.398438 123.675781 234.953125 123.890625 234.496094 124.085938 C 234.039062 124.28125 233.574219 124.449219 233.097656 124.597656 C 232.625 124.746094 232.144531 124.871094 231.65625 124.96875 C 231.167969 125.066406 230.679688 125.144531 230.183594 125.191406 C 229.691406 125.242188 229.195312 125.265625 228.699219 125.265625 L 223.835938 125.265625 C 222.910156 125.265625 221.992188 125.179688 221.085938 125.011719 C 220.175781 124.839844 219.292969 124.585938 218.429688 124.246094 C 217.570312 123.910156 216.75 123.496094 215.964844 123.003906 C 215.183594 122.515625 214.453125 121.953125 213.773438 121.328125 C 213.09375 120.699219 212.480469 120.015625 211.929688 119.273438 C 211.378906 118.527344 210.902344 117.742188 210.5 116.910156 C 210.097656 116.078125 209.777344 115.21875 209.535156 114.324219 C 209.296875 113.433594 209.140625 112.527344 209.070312 111.605469 L 209.046875 111.285156 C 207.71875 98.816406 212.167969 86.046875 221.921875 74.355469 L 221.984375 74.277344 C 228.765625 66.296875 231.289062 61.886719 231.289062 58.007812 C 231.289062 57.242188 231.195312 55.867188 230.570312 55.277344 C 229.992188 54.730469 228.417969 54.128906 225.746094 54.074219 C 223.039062 54.113281 220.429688 54.640625 217.921875 55.65625 C 215.949219 56.46875 213.898438 56.875 211.765625 56.871094 C 210.84375 56.871094 209.929688 56.792969 209.019531 56.636719 C 208.113281 56.480469 207.226562 56.25 206.355469 55.945312 C 205.488281 55.636719 204.652344 55.261719 203.847656 54.8125 C 203.042969 54.363281 202.28125 53.851562 201.566406 53.273438 C 200.847656 52.699219 200.183594 52.0625 199.574219 51.375 C 198.964844 50.683594 198.417969 49.949219 197.933594 49.164062 C 197.449219 48.382812 197.03125 47.566406 196.6875 46.710938 C 196.339844 45.859375 196.070312 44.984375 195.871094 44.085938 C 195.675781 43.1875 195.554688 42.277344 195.511719 41.359375 C 195.46875 40.4375 195.503906 39.523438 195.617188 38.609375 C 195.730469 37.695312 195.917969 36.796875 196.183594 35.917969 C 196.449219 35.035156 196.785156 34.183594 197.195312 33.359375 C 197.605469 32.535156 198.082031 31.75 198.628906 31.007812 C 199.171875 30.265625 199.773438 29.574219 200.433594 28.929688 C 201.09375 28.289062 201.804688 27.710938 202.5625 27.1875 C 203.324219 26.667969 204.121094 26.214844 204.957031 25.828125 C 211.953125 22.621094 220.667969 20.78125 228.867188 20.78125 C 243.839844 20.78125 252.820312 26.585938 257.714844 31.453125 C 264.121094 37.824219 267.648438 46.59375 267.648438 56.152344 C 267.652344 72.136719 258.21875 83.328125 250.640625 92.320312 Z M 250.640625 92.320312 " fill-opacity="1" fill-rule="nonzero"/></g><path fill="rgb(0%, 0%, 0%)" d="M 228.871094 31.355469 C 222.070312 31.355469 214.882812 32.914062 209.375 35.4375 C 208.789062 35.710938 208.261719 36.074219 207.796875 36.527344 C 207.332031 36.980469 206.957031 37.496094 206.667969 38.078125 C 206.382812 38.660156 206.199219 39.269531 206.121094 39.914062 C 206.042969 40.558594 206.074219 41.195312 206.210938 41.828125 C 206.351562 42.460938 206.59375 43.050781 206.933594 43.601562 C 207.273438 44.152344 207.699219 44.632812 208.203125 45.039062 C 208.707031 45.445312 209.265625 45.757812 209.878906 45.972656 C 210.488281 46.191406 211.121094 46.296875 211.769531 46.300781 C 212.507812 46.300781 213.21875 46.160156 213.902344 45.875 C 217.726562 44.324219 221.703125 43.53125 225.832031 43.5 C 236.46875 43.667969 241.871094 49.40625 241.871094 58.007812 C 241.871094 65.597656 237.652344 72.179688 230.050781 81.121094 C 221.609375 91.242188 218.570312 101.195312 219.582031 110.308594 L 219.621094 110.792969 C 219.664062 111.324219 219.796875 111.828125 220.03125 112.308594 C 220.261719 112.785156 220.574219 113.207031 220.964844 113.570312 C 221.355469 113.929688 221.796875 114.207031 222.292969 114.402344 C 222.789062 114.597656 223.304688 114.691406 223.835938 114.691406 L 228.699219 114.691406 C 228.984375 114.691406 229.265625 114.664062 229.542969 114.609375 C 229.824219 114.550781 230.09375 114.46875 230.355469 114.355469 C 230.617188 114.246094 230.863281 114.109375 231.097656 113.945312 C 231.332031 113.785156 231.546875 113.601562 231.746094 113.398438 C 231.941406 113.191406 232.117188 112.972656 232.269531 112.730469 C 232.421875 112.492188 232.546875 112.238281 232.648438 111.972656 C 232.75 111.707031 232.824219 111.433594 232.871094 111.152344 C 232.917969 110.875 232.933594 110.589844 232.921875 110.308594 C 232.417969 101.703125 235.117188 94.28125 242.546875 85.507812 C 250.652344 75.890625 257.066406 67.625 257.066406 56.152344 C 257.070312 43.332031 248.289062 31.355469 228.871094 31.355469 Z M 228.871094 31.355469 " fill-opacity="1" fill-rule="nonzero"/><path fill="rgb(0%, 0%, 0%)" d="M 226.339844 143.285156 C 220.429688 143.285156 216.207031 147.671875 216.207031 153.914062 C 216.207031 159.820312 220.261719 164.375 226.171875 164.375 C 232.417969 164.375 236.300781 159.820312 236.300781 153.914062 C 236.300781 147.671875 232.246094 143.285156 226.339844 143.285156 Z M 226.339844 143.285156 " fill-opacity="1" fill-rule="nonzero"/></svg>