<?xml version="1.0" encoding="UTF-8"?><svg xmlns="http://www.w3.org/2000/svg" xmlns:xlink="http://www.w3.org/1999/xlink" contentScriptType="text/ecmascript" width="375" zoomAndPan="magnify" contentStyleType="text/css" viewBox="0 0 375 374.999991" height="374.999991" preserveAspectRatio="xMidYMid meet" version="1.0"><defs><clipPath id="clip-0"><path d="M 101 11.484375 L 375 11.484375 L 375 363.234375 L 101 363.234375 Z M 101 11.484375 " clip-rule="nonzero"/></clipPath></defs><path fill="rgb(10.5896%, 9.799194%, 9.799194%)" d="M 6.667969 121.992188 L 16.527344 112.136719 L 12.496094 108.105469 C 11.265625 106.878906 9.695312 106.210938 8.085938 106.089844 C 7.914062 106.082031 7.742188 106.070312 7.570312 106.070312 C 7.511719 106.070312 7.457031 106.074219 7.398438 106.074219 C 7.136719 106.082031 6.871094 106.101562 6.609375 106.136719 C 5.15625 106.339844 3.753906 106.988281 2.632812 108.109375 C 2.355469 108.386719 2.109375 108.683594 1.886719 108.992188 C 1.433594 109.632812 1.09375 110.324219 0.878906 111.050781 C 0.835938 111.195312 0.796875 111.34375 0.761719 111.496094 C 0.253906 113.75 0.878906 116.207031 2.632812 117.960938 L 6.667969 121.992188 " fill-opacity="1" fill-rule="nonzero"/><g clip-path="url(#clip-0)"><path fill="rgb(10.5896%, 9.799194%, 9.799194%)" d="M 101.539062 11.484375 L 101.539062 152.570312 L 101.71875 152.792969 L 101.773438 152.859375 L 102.082031 153.230469 L 102.09375 153.246094 L 102.117188 153.269531 L 102.15625 153.320312 L 102.160156 153.324219 L 102.445312 153.664062 L 102.757812 154.039062 L 102.824219 154.113281 L 102.859375 154.160156 L 103.09375 154.433594 L 103.191406 154.546875 L 103.398438 154.785156 L 103.441406 154.835938 L 103.511719 154.917969 L 103.691406 155.121094 L 103.800781 155.25 L 103.992188 155.460938 L 104.085938 155.566406 L 104.25 155.746094 L 104.28125 155.785156 L 104.285156 155.785156 L 104.347656 155.855469 L 104.496094 156.015625 L 104.59375 156.121094 L 104.722656 156.257812 L 104.785156 156.324219 L 104.839844 156.378906 L 104.933594 156.480469 L 104.972656 156.519531 L 104.984375 156.535156 L 105.195312 156.742188 L 105.207031 156.761719 L 105.296875 156.847656 L 105.359375 156.90625 L 105.433594 156.976562 L 105.484375 157.027344 L 105.539062 157.070312 L 105.574219 157.101562 L 105.621094 157.144531 L 105.625 157.148438 C 106.160156 157.566406 106.765625 158.003906 107.480469 158.476562 C 108.25 158.992188 109.085938 159.515625 109.800781 159.957031 L 110.628906 160.46875 C 111.53125 161.019531 112.425781 161.574219 113.316406 162.144531 L 113.664062 162.367188 C 113.75 162.421875 113.847656 162.488281 113.933594 162.542969 L 113.933594 23.871094 L 362.367188 23.871094 L 362.367188 350.847656 L 113.933594 350.847656 L 113.933594 255.105469 L 101.652344 242.832031 L 102.507812 241.976562 L 101.539062 241.011719 L 101.539062 363.234375 L 374.761719 363.234375 L 374.761719 11.484375 L 101.539062 11.484375 " fill-opacity="1" fill-rule="nonzero"/></g><path fill="rgb(10.5896%, 9.799194%, 9.799194%)" d="M 337.304688 95.25 L 238.148438 95.25 L 238.148438 107.636719 L 337.304688 107.636719 L 337.304688 95.25 " fill-opacity="1" fill-rule="nonzero"/><path fill="rgb(10.5896%, 9.799194%, 9.799194%)" d="M 138.996094 153.042969 L 337.304688 153.042969 L 337.304688 140.660156 L 138.996094 140.660156 L 138.996094 153.042969 " fill-opacity="1" fill-rule="nonzero"/><path fill="rgb(10.5896%, 9.799194%, 9.799194%)" d="M 138.996094 198.457031 L 337.304688 198.457031 L 337.304688 186.070312 L 138.996094 186.070312 L 138.996094 198.457031 " fill-opacity="1" fill-rule="nonzero"/><path fill="rgb(10.5896%, 9.799194%, 9.799194%)" d="M 337.304688 231.480469 L 161.921875 231.480469 L 174.316406 243.863281 L 337.304688 243.863281 L 337.304688 231.480469 " fill-opacity="1" fill-rule="nonzero"/><path fill="rgb(10.5896%, 9.799194%, 9.799194%)" d="M 53.125 138.222656 L 42.242188 127.347656 L 31.386719 116.496094 L 31.382812 116.496094 L 25 110.121094 L 19.757812 115.363281 L 9.894531 125.214844 L 6.667969 128.441406 L 4.648438 130.457031 L 32.773438 158.558594 L 33.199219 158.132812 L 52.699219 138.648438 L 53.125 138.222656 " fill-opacity="1" fill-rule="nonzero"/><path fill="rgb(10.5896%, 9.799194%, 9.799194%)" d="M 66.421875 143.316406 C 75.113281 152.003906 83.273438 161.703125 92.457031 169.832031 C 93.882812 171.097656 95.4375 172.273438 97.089844 173.300781 C 97.636719 173.644531 98.199219 173.96875 98.765625 174.273438 C 99.042969 174.421875 99.324219 174.5625 99.609375 174.703125 C 99.878906 174.832031 100.148438 174.964844 100.417969 175.085938 C 100.558594 175.148438 100.699219 175.214844 100.839844 175.273438 C 101.074219 175.371094 101.308594 175.464844 101.539062 175.554688 C 101.675781 175.609375 101.808594 175.667969 101.945312 175.71875 C 102.378906 175.878906 102.816406 176.03125 103.253906 176.167969 C 103.828125 176.34375 104.402344 176.492188 104.980469 176.617188 C 105.292969 176.683594 105.601562 176.742188 105.910156 176.796875 C 106.191406 176.84375 106.46875 176.882812 106.753906 176.917969 C 107.3125 176.984375 107.875 177.019531 108.4375 177.035156 C 108.4375 177.035156 108.441406 177.035156 108.441406 177.035156 C 108.554688 177.035156 108.664062 177.039062 108.777344 177.039062 C 110.074219 177.039062 111.367188 176.882812 112.65625 176.554688 C 112.65625 176.554688 112.65625 176.554688 112.660156 176.554688 C 112.722656 176.539062 112.785156 176.519531 112.847656 176.5 C 112.867188 176.492188 112.886719 176.484375 112.90625 176.476562 C 112.953125 176.464844 112.996094 176.445312 113.039062 176.425781 C 113.0625 176.417969 113.082031 176.402344 113.105469 176.390625 C 113.140625 176.371094 113.175781 176.351562 113.214844 176.324219 C 113.234375 176.3125 113.253906 176.296875 113.273438 176.277344 C 113.289062 176.265625 113.304688 176.257812 113.316406 176.242188 C 113.34375 176.214844 113.371094 176.1875 113.394531 176.152344 C 113.726562 175.671875 113.28125 175.042969 112.851562 174.648438 C 111.371094 173.285156 109.734375 172.121094 108.042969 171.027344 C 107.941406 170.960938 107.839844 170.894531 107.738281 170.828125 C 106.625 170.117188 105.492188 169.429688 104.367188 168.734375 C 103.484375 168.1875 102.601562 167.636719 101.738281 167.058594 C 101.671875 167.011719 101.605469 166.964844 101.539062 166.917969 C 100.746094 166.386719 99.96875 165.832031 99.21875 165.242188 C 99.140625 165.183594 99.058594 165.117188 98.980469 165.050781 C 98.957031 165.03125 98.9375 165.011719 98.914062 164.992188 C 98.855469 164.945312 98.796875 164.890625 98.734375 164.839844 C 98.703125 164.8125 98.667969 164.78125 98.636719 164.75 C 98.585938 164.703125 98.53125 164.65625 98.480469 164.609375 C 98.445312 164.574219 98.410156 164.539062 98.371094 164.507812 C 98.316406 164.457031 98.265625 164.40625 98.210938 164.355469 C 98.175781 164.320312 98.136719 164.285156 98.101562 164.25 C 98.046875 164.191406 97.992188 164.140625 97.9375 164.085938 C 97.894531 164.046875 97.855469 164.007812 97.816406 163.964844 C 97.757812 163.910156 97.703125 163.855469 97.648438 163.796875 C 97.636719 163.789062 97.628906 163.78125 97.625 163.773438 C 97.589844 163.738281 97.554688 163.703125 97.523438 163.667969 C 97.464844 163.609375 97.40625 163.550781 97.351562 163.488281 C 97.308594 163.445312 97.265625 163.398438 97.21875 163.351562 C 97.160156 163.289062 97.101562 163.230469 97.042969 163.164062 C 97 163.117188 96.957031 163.070312 96.914062 163.027344 C 96.851562 162.957031 96.789062 162.886719 96.722656 162.820312 C 96.679688 162.773438 96.640625 162.726562 96.597656 162.683594 C 96.53125 162.609375 96.464844 162.535156 96.398438 162.457031 C 96.355469 162.410156 96.3125 162.363281 96.273438 162.316406 C 96.199219 162.238281 96.132812 162.160156 96.058594 162.082031 C 96.019531 162.03125 95.976562 161.984375 95.933594 161.933594 C 95.863281 161.851562 95.789062 161.765625 95.714844 161.683594 C 95.671875 161.636719 95.632812 161.589844 95.59375 161.542969 C 95.511719 161.453125 95.4375 161.363281 95.355469 161.269531 C 95.316406 161.226562 95.277344 161.179688 95.242188 161.136719 C 95.15625 161.035156 95.070312 160.9375 94.984375 160.835938 C 94.953125 160.792969 94.917969 160.753906 94.882812 160.71875 C 94.792969 160.605469 94.699219 160.496094 94.605469 160.382812 C 94.574219 160.347656 94.542969 160.3125 94.515625 160.28125 C 94.414062 160.160156 94.3125 160.039062 94.210938 159.914062 C 94.191406 159.886719 94.164062 159.859375 94.144531 159.832031 C 94.03125 159.699219 93.921875 159.5625 93.804688 159.421875 C 93.789062 159.40625 93.777344 159.390625 93.761719 159.371094 C 93.636719 159.222656 93.511719 159.066406 93.386719 158.914062 C 93.382812 158.910156 93.378906 158.902344 93.371094 158.898438 C 82.421875 145.511719 62.476562 117.390625 46.511719 111.875 C 46.507812 111.875 46.507812 111.875 46.507812 111.871094 C 46.328125 111.808594 46.148438 111.753906 45.96875 111.695312 C 45.953125 111.6875 45.9375 111.683594 45.921875 111.679688 C 45.753906 111.628906 45.585938 111.578125 45.421875 111.53125 C 45.394531 111.523438 45.367188 111.515625 45.34375 111.507812 C 45.183594 111.464844 45.027344 111.425781 44.871094 111.382812 C 44.835938 111.375 44.800781 111.367188 44.765625 111.359375 C 44.617188 111.320312 44.46875 111.289062 44.320312 111.257812 C 44.277344 111.25 44.234375 111.238281 44.191406 111.230469 C 44.050781 111.199219 43.910156 111.171875 43.765625 111.148438 C 43.71875 111.140625 43.671875 111.132812 43.625 111.125 C 43.488281 111.101562 43.351562 111.078125 43.214844 111.0625 C 43.164062 111.054688 43.113281 111.046875 43.058594 111.039062 C 42.929688 111.019531 42.796875 111.007812 42.667969 110.992188 C 42.613281 110.988281 42.554688 110.984375 42.5 110.976562 C 42.375 110.964844 42.25 110.957031 42.125 110.949219 C 42.0625 110.945312 42.003906 110.941406 41.941406 110.9375 C 41.824219 110.933594 41.703125 110.929688 41.582031 110.929688 C 41.519531 110.925781 41.457031 110.925781 41.394531 110.925781 C 41.367188 110.925781 41.347656 110.925781 41.324219 110.925781 C 41.230469 110.925781 41.136719 110.925781 41.042969 110.929688 C 40.976562 110.929688 40.910156 110.929688 40.847656 110.933594 C 40.734375 110.9375 40.621094 110.945312 40.511719 110.953125 C 40.441406 110.957031 40.371094 110.960938 40.304688 110.964844 C 40.195312 110.976562 40.085938 110.988281 39.980469 111 C 39.90625 111.007812 39.835938 111.019531 39.769531 111.027344 C 39.664062 111.039062 39.554688 111.054688 39.453125 111.074219 C 39.378906 111.085938 39.308594 111.097656 39.238281 111.113281 C 39.136719 111.128906 39.035156 111.152344 38.933594 111.167969 C 38.859375 111.1875 38.785156 111.203125 38.710938 111.222656 C 38.613281 111.242188 38.515625 111.269531 38.414062 111.292969 C 38.339844 111.3125 38.261719 111.335938 38.1875 111.355469 C 38.09375 111.382812 37.996094 111.410156 37.902344 111.441406 C 37.828125 111.464844 37.75 111.492188 37.671875 111.523438 C 37.582031 111.550781 37.488281 111.585938 37.398438 111.617188 C 37.316406 111.648438 37.242188 111.679688 37.164062 111.710938 C 37.074219 111.746094 36.984375 111.78125 36.898438 111.820312 C 36.816406 111.855469 36.738281 111.890625 36.65625 111.929688 C 36.570312 111.96875 36.488281 112.007812 36.402344 112.050781 C 36.320312 112.089844 36.238281 112.132812 36.15625 112.179688 C 36.074219 112.21875 35.996094 112.261719 35.910156 112.308594 C 35.828125 112.355469 35.746094 112.40625 35.660156 112.457031 C 35.582031 112.503906 35.503906 112.542969 35.429688 112.59375 C 35.339844 112.648438 35.25 112.710938 35.160156 112.769531 C 35.089844 112.816406 35.019531 112.859375 34.953125 112.90625 C 34.847656 112.976562 34.742188 113.058594 34.640625 113.132812 C 34.609375 113.15625 34.574219 113.179688 34.546875 113.203125 L 53.410156 132.058594 C 56.820312 134.445312 61.105469 138.007812 66.421875 143.316406 " fill-opacity="1" fill-rule="nonzero"/><path fill="rgb(10.5896%, 9.799194%, 9.799194%)" d="M 202.484375 307.800781 L 199.175781 300.316406 L 198.554688 298.90625 L 193.585938 303.871094 L 194.996094 304.496094 L 202.484375 307.800781 " fill-opacity="1" fill-rule="nonzero"/><path fill="rgb(10.5896%, 9.799194%, 9.799194%)" d="M 191.09375 301.945312 L 196.628906 296.414062 L 183.980469 270.355469 L 181.871094 266.011719 L 160.664062 287.203125 L 165.011719 289.308594 L 191.09375 301.945312 " fill-opacity="1" fill-rule="nonzero"/><path fill="rgb(10.5896%, 9.799194%, 9.799194%)" d="M 136.613281 222.492188 L 117.109375 241.976562 L 116.257812 242.832031 L 158.210938 284.753906 L 179.417969 263.558594 L 137.464844 221.636719 L 136.613281 222.492188 " fill-opacity="1" fill-rule="nonzero"/><path fill="rgb(10.5896%, 9.799194%, 9.799194%)" d="M 113.882812 238.753906 L 113.933594 238.699219 L 133.382812 219.265625 L 113.933594 199.832031 L 101.539062 187.449219 L 55.925781 141.875 L 36.429688 161.355469 L 101.539062 226.417969 L 113.882812 238.753906 " fill-opacity="1" fill-rule="nonzero"/><path fill="rgb(10.5896%, 9.799194%, 9.799194%)" d="M 239.5625 304.988281 C 240.335938 306.339844 241.636719 307.230469 243.214844 307.507812 C 245.90625 307.988281 248.671875 306.628906 250.222656 305.320312 C 250.542969 305.050781 250.867188 304.765625 251.191406 304.480469 C 252.46875 303.347656 253.792969 302.171875 254.789062 302.308594 C 255.734375 302.4375 256.453125 303.664062 257.53125 305.660156 C 258.71875 307.871094 260.195312 310.625 263.179688 311.652344 C 265.863281 312.574219 268.441406 311.640625 270.515625 310.890625 L 270.726562 310.816406 C 281.578125 306.898438 293.566406 306.796875 304.480469 310.53125 C 305.828125 310.992188 307.296875 310.273438 307.761719 308.925781 C 308.222656 307.578125 307.503906 306.109375 306.152344 305.648438 C 294.128906 301.539062 280.921875 301.648438 268.96875 305.960938 L 268.757812 306.039062 C 267.3125 306.5625 265.820312 307.101562 264.863281 306.773438 C 263.792969 306.40625 262.957031 304.859375 262.078125 303.21875 C 260.753906 300.753906 259.101562 297.683594 255.476562 297.195312 C 252.132812 296.746094 249.714844 298.894531 247.765625 300.617188 C 247.472656 300.875 247.1875 301.132812 246.898438 301.375 C 245.746094 302.347656 244.332031 302.566406 244.039062 302.417969 C 243.925781 302.222656 243.933594 301.457031 243.941406 301.046875 C 244.082031 291.324219 243.535156 280.066406 238.410156 270.304688 C 237.304688 268.203125 235.671875 265.625 232.835938 264.355469 C 230.664062 263.375 226.960938 262.863281 221.660156 265.945312 C 207.4375 274.21875 200.632812 293.457031 206.496094 308.824219 C 208.367188 313.726562 212.351562 318.269531 217.335938 318.269531 C 217.84375 318.269531 218.363281 318.222656 218.890625 318.125 C 220.292969 317.863281 221.214844 316.515625 220.953125 315.113281 C 220.691406 313.710938 219.335938 312.789062 217.9375 313.054688 C 215.300781 313.550781 212.613281 310.378906 211.324219 306.988281 C 206.320312 293.875 212.121094 277.464844 224.257812 270.402344 C 226.136719 269.308594 228.785156 268.195312 230.71875 269.058594 C 231.808594 269.546875 232.769531 270.671875 233.835938 272.707031 C 238.421875 281.441406 238.910156 291.898438 238.777344 300.972656 C 238.761719 302.066406 238.738281 303.5625 239.5625 304.988281 " fill-opacity="1" fill-rule="nonzero"/></svg>