<?xml version="1.0" encoding="UTF-8"?><svg xmlns="http://www.w3.org/2000/svg" xmlns:xlink="http://www.w3.org/1999/xlink" contentScriptType="text/ecmascript" width="375" zoomAndPan="magnify" contentStyleType="text/css" viewBox="0 0 375 374.999991" height="374.999991" preserveAspectRatio="xMidYMid meet" version="1.0"><path fill="rgb(0%, 0%, 0%)" d="M 272.175781 205.644531 C 242.171875 205.644531 217.742188 181.238281 217.742188 151.210938 C 217.742188 121.179688 242.171875 96.773438 272.175781 96.773438 C 302.183594 96.773438 326.613281 121.179688 326.613281 151.210938 C 326.613281 181.238281 302.183594 205.644531 272.175781 205.644531 Z M 272.175781 84.675781 C 235.484375 84.675781 205.644531 114.519531 205.644531 151.210938 C 205.644531 187.902344 235.484375 217.742188 272.175781 217.742188 C 308.871094 217.742188 338.710938 187.902344 338.710938 151.210938 C 338.710938 114.519531 308.871094 84.675781 272.175781 84.675781 " fill-opacity="1" fill-rule="nonzero"/><path fill="rgb(0%, 0%, 0%)" d="M 272.175781 169.355469 C 262.160156 169.355469 254.03125 161.226562 254.03125 151.210938 C 254.03125 141.191406 262.160156 133.066406 272.175781 133.066406 C 282.195312 133.066406 290.324219 141.191406 290.324219 151.210938 C 290.324219 161.226562 282.195312 169.355469 272.175781 169.355469 Z M 272.175781 120.96875 C 255.496094 120.96875 241.933594 134.53125 241.933594 151.210938 C 241.933594 167.890625 255.496094 181.453125 272.175781 181.453125 C 288.859375 181.453125 302.417969 167.890625 302.417969 151.210938 C 302.417969 134.53125 288.859375 120.96875 272.175781 120.96875 " fill-opacity="1" fill-rule="nonzero"/><path fill="rgb(0%, 0%, 0%)" d="M 348.65625 169.496094 L 347.757812 172.617188 C 346.082031 178.617188 343.742188 184.285156 340.789062 189.53125 L 339.207031 192.367188 L 346.035156 205.644531 L 326.613281 225.066406 L 313.335938 218.238281 L 310.523438 219.820312 C 305.277344 222.773438 299.585938 225.113281 293.605469 226.789062 L 290.488281 227.6875 L 285.90625 241.933594 L 258.449219 241.933594 L 253.867188 227.6875 L 250.75 226.789062 C 244.769531 225.113281 239.078125 222.773438 233.832031 219.820312 L 231.019531 218.238281 L 217.742188 225.066406 L 198.320312 205.644531 L 205.148438 192.367188 L 203.566406 189.53125 C 200.613281 184.285156 198.273438 178.617188 196.597656 172.617188 L 195.699219 169.496094 L 181.453125 164.9375 L 181.453125 137.484375 L 195.699219 132.921875 L 196.597656 129.804688 C 198.273438 123.828125 200.613281 118.132812 203.566406 112.863281 L 205.148438 110.050781 L 198.320312 96.773438 L 217.742188 77.328125 L 231.019531 84.179688 L 233.832031 82.597656 C 239.078125 79.644531 244.769531 77.304688 250.75 75.628906 L 253.867188 74.730469 L 258.449219 60.484375 L 285.90625 60.484375 L 290.488281 74.730469 L 293.605469 75.628906 C 299.585938 77.304688 305.277344 79.644531 310.523438 82.597656 L 313.335938 84.179688 L 326.613281 77.328125 L 346.035156 96.773438 L 339.207031 110.050781 L 340.789062 112.863281 C 343.742188 118.132812 346.082031 123.828125 347.757812 129.804688 L 348.65625 132.921875 L 362.902344 137.484375 L 362.902344 164.9375 Z M 362.902344 332.660156 C 362.902344 334.269531 362.125 335.734375 360.824219 336.652344 L 314.515625 359.265625 L 314.515625 306.058594 L 360.824219 328.667969 C 362.125 329.589844 362.902344 331.054688 362.902344 332.660156 Z M 12.097656 332.660156 C 12.097656 315.980469 25.660156 302.417969 42.339844 302.417969 L 60.484375 302.417969 L 60.484375 362.902344 L 42.339844 362.902344 C 25.660156 362.902344 12.097656 349.339844 12.097656 332.660156 Z M 56.941406 60.484375 L 96.773438 20.648438 L 96.773438 60.484375 Z M 72.582031 338.710938 L 302.417969 338.710938 L 302.417969 362.902344 L 72.582031 362.902344 Z M 302.417969 302.417969 L 302.417969 326.613281 L 72.582031 326.613281 L 72.582031 302.417969 Z M 302.417969 65.800781 C 301.617188 65.515625 300.835938 65.183594 300.03125 64.925781 L 294.742188 48.386719 L 249.613281 48.386719 L 244.320312 64.925781 C 239.644531 66.4375 235.132812 68.28125 230.832031 70.476562 L 215.425781 62.5625 L 183.53125 94.457031 L 191.445312 109.863281 C 189.25 114.164062 187.382812 118.675781 185.894531 123.355469 L 169.355469 128.644531 L 169.355469 173.773438 L 185.894531 179.066406 C 187.40625 183.742188 189.25 188.257812 191.445312 192.554688 L 183.53125 207.960938 L 215.425781 239.855469 L 230.832031 231.941406 C 235.132812 234.140625 239.644531 235.980469 244.320312 237.492188 L 249.613281 254.03125 L 294.742188 254.03125 L 300.03125 237.492188 C 300.835938 237.234375 301.617188 236.902344 302.417969 236.621094 L 302.417969 290.324219 L 48.386719 290.324219 L 48.386719 72.582031 L 108.871094 72.582031 L 108.871094 12.097656 L 302.417969 12.097656 Z M 375 173.773438 L 375 128.644531 L 358.460938 123.355469 C 356.972656 118.675781 355.105469 114.164062 352.910156 109.863281 L 360.824219 94.457031 L 328.929688 62.5625 L 314.515625 69.980469 L 314.515625 0 L 100.316406 0 L 36.289062 64.027344 L 36.289062 290.820312 C 15.804688 293.75 0 311.375 0 332.660156 C 0 356.003906 18.996094 375 42.339844 375 L 309.863281 375 L 366.472656 347.355469 L 367.039062 347.050781 C 372.023438 343.929688 375 338.542969 375 332.660156 C 375 326.777344 372.023438 321.390625 367.039062 318.273438 L 314.515625 292.589844 L 314.515625 232.4375 L 328.929688 239.855469 L 360.824219 207.960938 L 352.910156 192.554688 C 355.105469 188.257812 356.949219 183.742188 358.460938 179.066406 L 375 173.773438 " fill-opacity="1" fill-rule="nonzero"/><path fill="rgb(0%, 0%, 0%)" d="M 60.484375 102.824219 C 60.484375 112.839844 68.613281 120.96875 78.628906 120.96875 L 139.113281 120.96875 C 142.445312 120.96875 145.160156 123.683594 145.160156 127.015625 C 145.160156 130.347656 142.445312 133.066406 139.113281 133.066406 L 108.871094 133.066406 C 98.851562 133.066406 90.726562 141.191406 90.726562 151.210938 C 90.726562 161.226562 98.851562 169.355469 108.871094 169.355469 L 120.96875 169.355469 C 124.300781 169.355469 127.015625 172.070312 127.015625 175.402344 C 127.015625 178.734375 124.300781 181.453125 120.96875 181.453125 L 78.628906 181.453125 C 68.613281 181.453125 60.484375 189.578125 60.484375 199.597656 C 60.484375 209.613281 68.613281 217.742188 78.628906 217.742188 L 163.304688 217.742188 L 163.304688 205.644531 L 78.628906 205.644531 C 75.296875 205.644531 72.582031 202.929688 72.582031 199.597656 C 72.582031 196.265625 75.296875 193.546875 78.628906 193.546875 L 120.96875 193.546875 C 130.984375 193.546875 139.113281 185.421875 139.113281 175.402344 C 139.113281 165.386719 130.984375 157.257812 120.96875 157.257812 L 108.871094 157.257812 C 105.539062 157.257812 102.824219 154.539062 102.824219 151.210938 C 102.824219 147.878906 105.539062 145.160156 108.871094 145.160156 L 139.113281 145.160156 C 149.128906 145.160156 157.257812 137.035156 157.257812 127.015625 C 157.257812 117 149.128906 108.871094 139.113281 108.871094 L 78.628906 108.871094 C 75.296875 108.871094 72.582031 106.152344 72.582031 102.824219 C 72.582031 99.492188 75.296875 96.773438 78.628906 96.773438 L 169.355469 96.773438 L 169.355469 84.675781 L 78.628906 84.675781 C 68.613281 84.675781 60.484375 92.804688 60.484375 102.824219 " fill-opacity="1" fill-rule="nonzero"/><path fill="rgb(0%, 0%, 0%)" d="M 72.582031 241.933594 L 60.484375 241.933594 L 60.484375 254.03125 L 72.582031 254.03125 L 72.582031 241.933594 " fill-opacity="1" fill-rule="nonzero"/><path fill="rgb(0%, 0%, 0%)" d="M 84.675781 254.03125 L 169.355469 254.03125 L 169.355469 241.933594 L 84.675781 241.933594 L 84.675781 254.03125 " fill-opacity="1" fill-rule="nonzero"/><path fill="rgb(0%, 0%, 0%)" d="M 60.484375 278.226562 L 169.355469 278.226562 L 169.355469 266.128906 L 60.484375 266.128906 L 60.484375 278.226562 " fill-opacity="1" fill-rule="nonzero"/><path fill="rgb(0%, 0%, 0%)" d="M 193.546875 266.128906 L 181.453125 266.128906 L 181.453125 278.226562 L 193.546875 278.226562 L 193.546875 266.128906 " fill-opacity="1" fill-rule="nonzero"/><path fill="rgb(0%, 0%, 0%)" d="M 241.933594 266.128906 L 229.839844 266.128906 L 229.839844 278.226562 L 241.933594 278.226562 L 241.933594 266.128906 " fill-opacity="1" fill-rule="nonzero"/><path fill="rgb(0%, 0%, 0%)" d="M 217.742188 266.128906 L 205.644531 266.128906 L 205.644531 278.226562 L 217.742188 278.226562 L 217.742188 266.128906 " fill-opacity="1" fill-rule="nonzero"/><path fill="rgb(0%, 0%, 0%)" d="M 290.324219 24.195312 L 278.226562 24.195312 L 278.226562 36.289062 L 290.324219 36.289062 L 290.324219 24.195312 " fill-opacity="1" fill-rule="nonzero"/><path fill="rgb(0%, 0%, 0%)" d="M 241.933594 24.195312 L 229.839844 24.195312 L 229.839844 36.289062 L 241.933594 36.289062 L 241.933594 24.195312 " fill-opacity="1" fill-rule="nonzero"/><path fill="rgb(0%, 0%, 0%)" d="M 266.128906 24.195312 L 254.03125 24.195312 L 254.03125 36.289062 L 266.128906 36.289062 L 266.128906 24.195312 " fill-opacity="1" fill-rule="nonzero"/></svg>