<?xml version="1.0" encoding="UTF-8"?><svg xmlns="http://www.w3.org/2000/svg" xmlns:xlink="http://www.w3.org/1999/xlink" contentScriptType="text/ecmascript" width="375" zoomAndPan="magnify" contentStyleType="text/css" viewBox="0 0 375 374.999991" height="374.999991" preserveAspectRatio="xMidYMid meet" version="1.0"><defs><clipPath id="clip-0"><path d="M 96 355 L 279 355 L 279 369.738281 L 96 369.738281 Z M 96 355 " clip-rule="nonzero"/></clipPath><clipPath id="clip-1"><path d="M 182 5.238281 L 193 5.238281 L 193 139 L 182 139 Z M 182 5.238281 " clip-rule="nonzero"/></clipPath></defs><path fill="rgb(0%, 0%, 0%)" d="M 303.265625 90.359375 L 72.121094 90.359375 C 69.292969 90.359375 67 88.066406 67 85.238281 C 67 82.410156 69.292969 80.121094 72.121094 80.121094 L 303.265625 80.121094 C 306.09375 80.121094 308.386719 82.410156 308.386719 85.238281 C 308.386719 88.066406 306.09375 90.359375 303.265625 90.359375 Z M 303.265625 90.359375 " fill-opacity="1" fill-rule="nonzero"/><path fill="rgb(0%, 0%, 0%)" d="M 187.492188 118.25 C 169.289062 118.25 154.476562 103.441406 154.476562 85.238281 C 154.476562 67.03125 169.285156 52.222656 187.492188 52.222656 C 205.695312 52.222656 220.503906 67.03125 220.503906 85.238281 C 220.503906 103.441406 205.695312 118.25 187.492188 118.25 Z M 187.492188 61.300781 C 174.292969 61.300781 163.554688 72.039062 163.554688 85.238281 C 163.554688 98.4375 174.292969 109.175781 187.492188 109.175781 C 200.6875 109.175781 211.429688 98.4375 211.429688 85.238281 C 211.429688 72.039062 200.691406 61.300781 187.492188 61.300781 Z M 187.492188 61.300781 " fill-opacity="1" fill-rule="nonzero"/><path fill="rgb(0%, 0%, 0%)" d="M 173.875 138.722656 L 173.875 312.894531 L 202.4375 312.894531 L 202.4375 138.722656 Z M 190.515625 235.320312 C 190.515625 236.992188 189.160156 238.347656 187.492188 238.347656 C 185.820312 238.347656 184.464844 236.992188 184.464844 235.320312 L 184.464844 143.125 C 184.464844 141.453125 185.820312 140.101562 187.492188 140.101562 C 189.160156 140.101562 190.515625 141.453125 190.515625 143.125 Z M 190.515625 235.320312 " fill-opacity="1" fill-rule="nonzero"/><path fill="rgb(0%, 0%, 0%)" d="M 210.082031 331.945312 L 164.6875 331.945312 C 160.84375 331.945312 157.730469 328.832031 157.730469 324.988281 C 157.730469 321.144531 160.84375 318.027344 164.6875 318.027344 L 210.082031 318.027344 C 213.925781 318.027344 217.039062 321.144531 217.039062 324.988281 C 217.039062 328.832031 213.925781 331.945312 210.082031 331.945312 Z M 210.082031 331.945312 " fill-opacity="1" fill-rule="nonzero"/><path fill="rgb(0%, 0%, 0%)" d="M 237.519531 350.46875 L 137.261719 350.46875 C 133.417969 350.46875 130.300781 347.351562 130.300781 343.507812 C 130.300781 339.664062 133.417969 336.550781 137.261719 336.550781 L 237.519531 336.550781 C 241.359375 336.550781 244.476562 339.664062 244.476562 343.507812 C 244.476562 347.351562 241.359375 350.46875 237.519531 350.46875 Z M 237.519531 350.46875 " fill-opacity="1" fill-rule="nonzero"/><g clip-path="url(#clip-0)"><path fill="rgb(0%, 0%, 0%)" d="M 271.394531 369.738281 L 103.367188 369.738281 C 99.523438 369.738281 96.40625 366.625 96.40625 362.78125 C 96.40625 358.9375 99.523438 355.824219 103.367188 355.824219 L 271.394531 355.824219 C 275.238281 355.824219 278.351562 358.9375 278.351562 362.78125 C 278.351562 366.625 275.238281 369.738281 271.394531 369.738281 Z M 271.394531 369.738281 " fill-opacity="1" fill-rule="nonzero"/></g><path fill="rgb(0%, 0%, 0%)" d="M 74.535156 102.632812 L 12.566406 236.972656 L 24.390625 236.972656 L 74.535156 129.5 L 124.679688 236.972656 L 136.503906 236.972656 Z M 74.535156 102.632812 " fill-opacity="1" fill-rule="nonzero"/><path fill="rgb(0%, 0%, 0%)" d="M 143.167969 254.671875 L 6.101562 254.671875 C 2.761719 254.671875 0.0507812 251.964844 0.0507812 248.621094 C 0.0507812 245.277344 2.761719 242.570312 6.101562 242.570312 L 143.167969 242.570312 C 146.507812 242.570312 149.21875 245.277344 149.21875 248.621094 C 149.21875 251.964844 146.507812 254.671875 143.167969 254.671875 Z M 143.167969 254.671875 " fill-opacity="1" fill-rule="nonzero"/><path fill="rgb(0%, 0%, 0%)" d="M 14.558594 259 C 21.828125 285.222656 45.867188 304.46875 74.402344 304.46875 C 102.941406 304.46875 126.976562 285.21875 134.246094 259 Z M 14.558594 259 " fill-opacity="1" fill-rule="nonzero"/><path fill="rgb(0%, 0%, 0%)" d="M 300.441406 102.632812 L 362.410156 236.972656 L 350.585938 236.972656 L 300.441406 129.5 L 250.296875 236.972656 L 238.476562 236.972656 Z M 300.441406 102.632812 " fill-opacity="1" fill-rule="nonzero"/><path fill="rgb(0%, 0%, 0%)" d="M 368.878906 254.671875 L 231.816406 254.671875 C 228.472656 254.671875 225.765625 251.964844 225.765625 248.621094 C 225.765625 245.277344 228.472656 242.570312 231.816406 242.570312 L 368.878906 242.570312 C 372.21875 242.570312 374.929688 245.277344 374.929688 248.621094 C 374.929688 251.964844 372.21875 254.671875 368.878906 254.671875 Z M 368.878906 254.671875 " fill-opacity="1" fill-rule="nonzero"/><path fill="rgb(0%, 0%, 0%)" d="M 360.425781 259 C 353.15625 285.222656 329.121094 304.46875 300.582031 304.46875 C 272.046875 304.46875 248.007812 285.21875 240.738281 259 L 360.429688 259 Z M 360.425781 259 " fill-opacity="1" fill-rule="nonzero"/><g clip-path="url(#clip-1)"><path fill="rgb(0%, 0%, 0%)" d="M 187.492188 5.238281 C 184.664062 5.238281 182.371094 7.402344 182.371094 10.066406 L 182.371094 138.722656 L 192.609375 138.722656 L 192.609375 10.066406 C 192.609375 7.398438 190.316406 5.238281 187.492188 5.238281 Z M 187.492188 5.238281 " fill-opacity="1" fill-rule="nonzero"/></g></svg>