<?xml version="1.0" encoding="UTF-8"?><svg xmlns="http://www.w3.org/2000/svg" xmlns:xlink="http://www.w3.org/1999/xlink" contentScriptType="text/ecmascript" width="375" zoomAndPan="magnify" contentStyleType="text/css" viewBox="0 0 375 374.999991" height="374.999991" preserveAspectRatio="xMidYMid meet" version="1.0"><defs><clipPath id="clip-0"><path d="M 212 24.84375 L 237 24.84375 L 237 38 L 212 38 Z M 212 24.84375 " clip-rule="nonzero"/></clipPath><clipPath id="clip-1"><path d="M 116 210 L 373 210 L 373 350.34375 L 116 350.34375 Z M 116 210 " clip-rule="nonzero"/></clipPath></defs><path fill="rgb(0%, 0%, 0%)" d="M 146.109375 199.21875 L 291.339844 199.21875 C 293.082031 199.21875 294.535156 198.347656 295.695312 197.183594 C 296.855469 196.023438 297.148438 194.277344 297.148438 192.535156 L 290.175781 145.742188 C 289.304688 138.769531 283.785156 132.957031 276.816406 131.792969 L 253.578125 127.433594 C 249.511719 131.210938 244.867188 134.117188 239.925781 136.445312 C 240.800781 136.734375 241.671875 137.023438 242.832031 137.316406 L 274.78125 143.417969 C 276.816406 143.710938 278.269531 145.164062 278.558594 147.488281 L 284.367188 187.882812 L 152.789062 187.882812 L 158.597656 147.488281 C 158.890625 145.453125 160.34375 144 162.664062 143.710938 L 194.617188 137.898438 C 195.488281 137.605469 196.648438 137.316406 197.519531 137.023438 C 192.582031 134.699219 187.9375 131.792969 183.871094 128.015625 L 160.632812 131.792969 C 153.660156 132.957031 147.851562 138.769531 147.273438 145.453125 L 140.300781 192.535156 C 140.011719 194.277344 140.589844 196.023438 141.753906 197.183594 C 142.914062 198.347656 144.367188 199.21875 146.109375 199.21875 Z M 146.109375 199.21875 " fill-opacity="1" fill-rule="nonzero"/><path fill="rgb(0%, 0%, 0%)" d="M 178.058594 88.78125 C 178.058594 111.160156 196.359375 129.46875 218.722656 129.46875 C 241.089844 129.46875 259.386719 111.160156 259.386719 88.78125 C 259.386719 66.402344 241.089844 48.09375 218.722656 48.09375 C 196.359375 48.09375 178.058594 66.402344 178.058594 88.78125 Z M 178.058594 88.78125 " fill-opacity="1" fill-rule="nonzero"/><path fill="rgb(0%, 0%, 0%)" d="M 305.570312 207.066406 C 303.246094 209.972656 300.921875 213.167969 298.601562 215.785156 C 296.566406 218.109375 296.566406 221.886719 298.890625 223.921875 C 300.050781 224.792969 301.214844 225.375 302.667969 225.375 C 305.28125 223.632812 307.605469 221.886719 310.21875 220.144531 C 311.960938 218.109375 313.703125 216.074219 315.15625 213.75 C 316.898438 211.132812 316.609375 207.648438 313.996094 205.613281 C 311.089844 203.867188 307.605469 204.449219 305.570312 207.066406 Z M 305.570312 207.066406 " fill-opacity="1" fill-rule="nonzero"/><path fill="rgb(0%, 0%, 0%)" d="M 183.289062 41.992188 C 183.871094 41.992188 184.449219 41.992188 185.03125 41.699219 C 188.515625 40.539062 192.292969 39.664062 195.777344 38.792969 C 198.972656 38.210938 201.007812 35.015625 200.136719 31.820312 C 199.261719 28.621094 196.359375 26.585938 193.164062 27.460938 C 189.679688 28.332031 185.613281 29.492188 181.546875 30.65625 C 178.640625 31.527344 176.898438 35.015625 177.769531 37.921875 C 178.640625 40.539062 180.964844 41.992188 183.289062 41.992188 Z M 183.289062 41.992188 " fill-opacity="1" fill-rule="nonzero"/><path fill="rgb(0%, 0%, 0%)" d="M 251.546875 41.699219 C 255.03125 42.863281 258.515625 44.316406 262.003906 45.769531 C 262.875 46.058594 263.453125 46.351562 264.324219 46.351562 C 266.648438 46.351562 268.683594 45.1875 269.554688 42.863281 C 270.714844 39.957031 269.554688 36.46875 266.648438 35.304688 C 262.875 33.5625 258.808594 32.109375 255.03125 30.945312 C 251.835938 30.074219 248.640625 31.527344 247.769531 34.726562 C 246.898438 37.339844 248.640625 40.539062 251.546875 41.699219 Z M 251.546875 41.699219 " fill-opacity="1" fill-rule="nonzero"/><path fill="rgb(0%, 0%, 0%)" d="M 151.917969 58.265625 C 153.082031 58.265625 154.242188 57.976562 155.40625 57.101562 C 158.308594 54.777344 161.503906 52.742188 164.699219 51 C 167.605469 49.257812 168.476562 45.769531 166.730469 43.152344 C 164.988281 40.246094 161.503906 39.375 158.890625 41.117188 C 155.40625 43.152344 151.917969 45.476562 148.433594 47.804688 C 145.820312 49.835938 145.238281 53.324219 147.273438 55.941406 C 148.433594 57.394531 150.175781 58.265625 151.917969 58.265625 Z M 151.917969 58.265625 " fill-opacity="1" fill-rule="nonzero"/><path fill="rgb(0%, 0%, 0%)" d="M 320.964844 110.289062 C 322.128906 113.773438 323 117.554688 323.871094 121.039062 C 324.449219 123.65625 326.773438 125.691406 329.679688 125.691406 C 329.96875 125.691406 330.550781 125.691406 330.839844 125.691406 C 334.035156 125.109375 336.070312 121.914062 335.199219 118.714844 C 334.328125 114.648438 333.164062 110.578125 332.003906 106.800781 C 331.132812 103.894531 327.644531 102.148438 324.742188 103.023438 C 321.546875 103.894531 319.804688 107.382812 320.964844 110.289062 Z M 320.964844 110.289062 " fill-opacity="1" fill-rule="nonzero"/><path fill="rgb(0%, 0%, 0%)" d="M 123.453125 82.386719 C 124.617188 83.257812 125.777344 83.550781 126.941406 83.550781 C 128.683594 83.550781 130.425781 82.679688 131.585938 81.226562 C 133.910156 78.320312 136.234375 75.121094 138.558594 72.507812 C 140.589844 70.179688 140.589844 66.402344 137.976562 64.367188 C 135.652344 62.335938 131.878906 62.335938 129.84375 64.949219 C 126.941406 68.148438 124.324219 71.34375 122 74.539062 C 120.257812 76.867188 120.839844 80.351562 123.453125 82.386719 Z M 123.453125 82.386719 " fill-opacity="1" fill-rule="nonzero"/><path fill="rgb(0%, 0%, 0%)" d="M 281.464844 56.8125 C 284.367188 59.136719 287.5625 61.460938 290.175781 63.789062 C 291.339844 64.660156 292.789062 65.242188 293.953125 65.242188 C 295.40625 65.242188 297.148438 64.660156 298.308594 63.207031 C 300.34375 60.882812 300.34375 57.101562 297.730469 55.070312 C 294.535156 52.164062 291.339844 49.546875 288.144531 47.222656 C 285.53125 45.476562 282.042969 46.058594 280.011719 48.675781 C 278.269531 51.289062 279.140625 54.777344 281.464844 56.8125 Z M 281.464844 56.8125 " fill-opacity="1" fill-rule="nonzero"/><path fill="rgb(0%, 0%, 0%)" d="M 311.671875 89.945312 C 312.832031 91.6875 314.574219 92.851562 316.609375 92.851562 C 317.480469 92.851562 318.640625 92.558594 319.511719 91.976562 C 322.417969 90.234375 323.289062 86.746094 321.546875 84.132812 C 319.511719 80.644531 317.1875 77.15625 314.574219 73.667969 C 312.542969 71.054688 309.054688 70.472656 306.441406 72.507812 C 303.828125 74.539062 303.246094 78.027344 305.28125 80.644531 C 307.605469 83.550781 309.636719 86.746094 311.671875 89.945312 Z M 311.671875 89.945312 " fill-opacity="1" fill-rule="nonzero"/><g clip-path="url(#clip-0)"><path fill="rgb(0%, 0%, 0%)" d="M 218.433594 36.46875 L 218.722656 36.46875 C 222.5 36.46875 225.984375 36.757812 229.761719 37.050781 C 230.050781 37.050781 230.050781 37.050781 230.34375 37.050781 C 233.246094 37.050781 235.859375 34.726562 236.152344 31.820312 C 236.441406 28.621094 234.117188 25.714844 230.921875 25.425781 C 226.855469 25.132812 222.789062 24.84375 218.722656 24.84375 L 218.433594 24.84375 C 215.238281 24.84375 212.625 27.460938 212.625 30.65625 C 212.625 33.851562 215.238281 36.46875 218.433594 36.46875 Z M 218.433594 36.46875 " fill-opacity="1" fill-rule="nonzero"/></g><path fill="rgb(0%, 0%, 0%)" d="M 328.226562 173.351562 C 325.320312 172.480469 321.835938 173.933594 320.964844 177.132812 C 319.804688 180.617188 318.351562 184.105469 316.898438 187.59375 C 315.738281 190.5 316.898438 193.988281 319.804688 195.148438 C 320.675781 195.441406 321.253906 195.730469 322.128906 195.730469 C 324.449219 195.730469 326.484375 194.570312 327.355469 192.242188 C 329.097656 188.464844 330.550781 184.398438 331.710938 180.617188 C 332.875 177.710938 331.421875 174.515625 328.226562 173.351562 Z M 328.226562 173.351562 " fill-opacity="1" fill-rule="nonzero"/><path fill="rgb(0%, 0%, 0%)" d="M 326.195312 143.417969 L 326.195312 144 C 326.195312 147.777344 325.902344 151.554688 325.613281 155.335938 C 325.320312 158.53125 327.644531 161.4375 330.839844 161.726562 C 331.132812 161.726562 331.132812 161.726562 331.421875 161.726562 C 334.328125 161.726562 336.941406 159.402344 337.230469 156.496094 C 337.519531 152.429688 337.8125 148.070312 337.8125 144 L 337.8125 143.417969 C 337.8125 140.222656 335.199219 137.605469 332.003906 137.605469 C 328.808594 137.605469 326.195312 140.222656 326.195312 143.417969 Z M 326.195312 143.417969 " fill-opacity="1" fill-rule="nonzero"/><path fill="rgb(0%, 0%, 0%)" d="M 109.222656 114.648438 C 109.800781 114.9375 110.382812 114.9375 110.964844 114.9375 C 113.289062 114.9375 115.613281 113.484375 116.484375 110.867188 C 117.644531 107.382812 119.097656 103.894531 120.550781 100.40625 C 121.710938 97.5 120.550781 94.011719 117.644531 92.851562 C 114.742188 91.6875 111.253906 92.851562 110.09375 95.757812 C 108.351562 99.535156 106.898438 103.601562 105.734375 107.382812 C 104.285156 110.578125 106.027344 113.773438 109.222656 114.648438 Z M 109.222656 114.648438 " fill-opacity="1" fill-rule="nonzero"/><path fill="rgb(0%, 0%, 0%)" d="M 116.484375 177.421875 C 115.320312 173.933594 114.449219 170.15625 113.578125 166.667969 C 112.996094 163.472656 109.800781 161.4375 106.609375 162.308594 C 103.414062 162.890625 101.378906 166.085938 102.25 169.285156 C 103.121094 173.351562 104.285156 177.421875 105.445312 181.199219 C 106.316406 183.523438 108.640625 185.269531 110.964844 185.269531 C 111.546875 185.269531 112.125 185.269531 112.707031 184.976562 C 115.902344 183.816406 117.644531 180.328125 116.484375 177.421875 Z M 116.484375 177.421875 " fill-opacity="1" fill-rule="nonzero"/><path fill="rgb(0%, 0%, 0%)" d="M 115.613281 203.867188 C 116.484375 205.03125 117.0625 206.484375 117.933594 207.648438 C 121.710938 206.484375 125.488281 205.613281 129.84375 204.449219 C 128.390625 202.414062 126.941406 200.089844 125.777344 198.054688 C 124.035156 195.148438 120.550781 194.277344 117.933594 196.023438 C 115.03125 197.476562 114.160156 200.960938 115.613281 203.867188 Z M 115.613281 203.867188 " fill-opacity="1" fill-rule="nonzero"/><path fill="rgb(0%, 0%, 0%)" d="M 105.445312 149.8125 C 108.640625 149.8125 111.253906 147.195312 111.253906 144 C 111.253906 140.222656 111.546875 136.734375 111.835938 132.957031 C 112.125 129.757812 109.800781 126.851562 106.609375 126.5625 C 103.414062 126.273438 100.507812 128.597656 100.21875 131.792969 C 99.925781 135.863281 99.636719 139.929688 99.636719 144 L 99.636719 144.289062 C 99.636719 147.488281 102.25 149.8125 105.445312 149.8125 Z M 105.445312 149.8125 " fill-opacity="1" fill-rule="nonzero"/><g clip-path="url(#clip-1)"><path fill="rgb(0%, 0%, 0%)" d="M 366.859375 216.367188 C 363.953125 213.167969 356.980469 208.519531 345.652344 212.007812 C 338.683594 214.039062 316.609375 229.734375 298.601562 243.101562 C 300.050781 247.460938 300.34375 251.820312 300.050781 256.472656 C 321.253906 240.488281 343.910156 224.503906 349.140625 223.050781 C 352.042969 222.179688 356.109375 221.597656 358.726562 224.503906 C 361.339844 227.117188 361.917969 232.058594 360.46875 236.417969 C 356.402344 248.625 279.140625 312.5625 247.480469 330 C 219.886719 345.402344 201.585938 336.683594 188.226562 330.289062 C 173.992188 323.605469 144.078125 311.980469 117.355469 307.332031 L 117.355469 309.65625 C 117.355469 312.851562 116.773438 316.050781 116.191406 318.957031 C 141.460938 323.605469 170.21875 334.648438 183.289062 341.042969 C 191.421875 344.820312 203.039062 350.34375 217.851562 350.34375 C 228.019531 350.34375 239.925781 347.726562 253.289062 340.460938 C 281.171875 325.058594 365.40625 258.796875 371.796875 240.488281 C 374.117188 231.476562 372.375 222.179688 366.859375 216.367188 Z M 366.859375 216.367188 " fill-opacity="1" fill-rule="nonzero"/></g><path fill="rgb(0%, 0%, 0%)" d="M 171.089844 222.757812 C 185.320312 224.210938 194.90625 228.28125 203.039062 232.058594 C 207.976562 234.382812 212.914062 236.417969 218.144531 237.582031 C 224.535156 239.035156 232.085938 239.035156 240.21875 239.324219 C 253.871094 239.617188 269.554688 240.195312 274.492188 246.589844 C 276.234375 248.914062 277.6875 253.273438 276.234375 257.632812 C 274.78125 261.992188 271.007812 265.480469 264.90625 267.226562 C 249.511719 272.164062 207.105469 276.523438 189.679688 274.199219 C 186.484375 273.617188 183.578125 275.945312 182.996094 279.140625 C 182.417969 282.335938 184.742188 285.242188 187.9375 285.824219 C 191.710938 286.40625 196.359375 286.695312 201.878906 286.695312 C 223.660156 286.695312 254.742188 282.917969 268.101562 278.558594 C 277.6875 275.652344 284.367188 269.550781 286.980469 261.414062 C 289.304688 254.148438 287.851562 245.429688 283.207031 239.617188 C 274.78125 228.863281 257.066406 228.28125 239.925781 227.699219 C 232.375 227.410156 225.113281 227.410156 219.886719 226.246094 C 215.820312 225.375 211.753906 223.632812 207.105469 221.304688 C 198.390625 217.527344 187.644531 212.585938 171.378906 211.132812 C 153.660156 209.390625 128.972656 216.074219 113.578125 220.726562 C 115.03125 224.210938 115.902344 227.992188 116.191406 232.058594 C 131.296875 227.699219 155.113281 221.304688 171.089844 222.757812 Z M 171.089844 222.757812 " fill-opacity="1" fill-rule="nonzero"/><path fill="rgb(0%, 0%, 0%)" d="M 0.882812 216.65625 C 0.882812 219.851562 0.882812 323.898438 0.882812 327.09375 C 0.882812 330.289062 3.496094 332.90625 6.691406 332.90625 L 53.164062 332.90625 L 53.164062 210.84375 L 6.691406 210.84375 C 3.496094 210.84375 0.882812 213.460938 0.882812 216.65625 Z M 0.882812 216.65625 " fill-opacity="1" fill-rule="nonzero"/><path fill="rgb(0%, 0%, 0%)" d="M 82.210938 210.84375 L 64.78125 210.84375 L 64.78125 332.90625 L 82.210938 332.90625 C 94.988281 332.90625 105.445312 322.445312 105.445312 309.65625 L 105.445312 234.09375 C 105.445312 221.304688 94.988281 210.84375 82.210938 210.84375 Z M 82.210938 210.84375 " fill-opacity="1" fill-rule="nonzero"/></svg>